# xmcd CD database file
#
# Track frame offsets:
#	187
#	19880
#	38502
#	58440
#	75897
#	93182
#	117165
#	136952
#	157392
#
# Disc length: 2401 seconds
#
# Revision: 2
# Processed by: cddbd v1.5.2PL0 Copyright (c) Steve Scherf et al.
# Submitted via: CDex 1.82
#
DISCID=6d095f09
DTITLE=Oaktowns's 3-5-7 - Wild and Loose
DYEAR=1989
DGENRE=Rap
TTITLE0=We Like It
TTITLE1=Say That Then
TTITLE2=Rock 'N' Soul
TTITLE3=It's A Shame
TTITLE4=3-5-7 Straight At You
TTITLE5=Yeah, Yeah, Yeah
TTITLE6=Juicy Gotch Krazy
TTITLE7=Stupid Def Ya'll
TTITLE8=I Betcha Wanna Take It
EXTD=YEAR: 1989
EXTT0=
EXTT1=
EXTT2=
EXTT3=
EXTT4=
EXTT5=
EXTT6=
EXTT7=
EXTT8=
PLAYORDER=
